<svg width="25" height="24" viewBox="0 0 25 24" fill="none" xmlns="http://www.w3.org/2000/svg">
<path opacity="0.3" d="M10.9 2C11.4523 2 11.9 2.44772 11.9 3C11.9 3.55228 11.4523 4 10.9 4H6C4.89543 4 4 4.89543 4 6V18C4 19.1046 4.89543 20 6 20H18C19.1046 20 20 19.1046 20 18V16C20 15.4477 20.4477 15 21 15C21.5523 15 22 15.4477 22 16V18C22 20.2091 20.2091 22 18 22H6C3.79086 22 2 20.2091 2 18V6C2 3.79086 3.79086 2 6 2H10.9Z" fill="#25B6AC"/>
<path d="M7.00455 13.8975C7.00455 13.1348 6.84111 10.1248 9.21552 7.73678C10.8136 6.12962 13.2053 5.85087 16.0654 5.72375V1.83809C16.0654 1.18735 16.8374 0.84538 17.3194 1.28262L23.8275 7.187C24.1534 7.48259 24.156 7.99383 23.8332 8.29274L17.325 14.32C16.8449 14.7646 16.0654 14.4241 16.0654 13.7697V9.90779C14.2494 9.95773 12.9559 10.0732 11.7806 10.4471C9.50904 11.1698 8.16113 14.2687 7.79763 15.2126C7.73495 15.3754 7.57969 15.4865 7.40526 15.4865C7.18144 15.4865 7.00007 15.3052 7.00078 15.0813C7.00208 14.6693 7.00455 14.1957 7.00455 13.8975Z" fill="#25B6AC"/>
</svg>
