<svg width="21" height="20" viewBox="0 0 21 20" fill="none" xmlns="http://www.w3.org/2000/svg">
<path fill-rule="evenodd" clip-rule="evenodd" d="M6.55483 0.490688C3.54349 1.16149 1.16942 3.48871 0.425961 6.49861C-0.141987 8.79794 -0.141987 11.2021 0.42596 13.5014C1.16942 16.5113 3.54349 18.8385 6.55482 19.5093L7.05647 19.6211C9.32466 20.1263 11.6753 20.1263 13.9435 19.6211L14.4452 19.5093C17.4565 18.8385 19.8306 16.5113 20.574 13.5014C21.142 11.2021 21.142 8.79795 20.574 6.49862C19.8306 3.48871 17.4565 1.16149 14.4452 0.490687L13.9435 0.378943C11.6753 -0.126314 9.32467 -0.126314 7.05647 0.378942L6.55483 0.490688ZM6.66988 7.57013C6.34214 7.33474 5.88669 7.41107 5.65259 7.74061C5.41849 8.07016 5.4944 8.52813 5.82214 8.76352L8.66324 10.8041C9.76201 11.5932 11.238 11.5932 12.3368 10.8041L15.1779 8.76352C15.5057 8.52813 15.5816 8.07016 15.3475 7.74061C15.1134 7.41107 14.6579 7.33474 14.3302 7.57013L11.4891 9.61067C10.8974 10.0356 10.1026 10.0356 9.51099 9.61067L6.66988 7.57013Z" fill="#6A6ECC"/>
</svg>
