<svg width="60" height="165" viewBox="0 0 60 165" fill="none" xmlns="http://www.w3.org/2000/svg">
<path d="M227.104 58.4645L227.104 58.4658L227.162 58.5618L227.241 58.6425C227.458 58.8676 227.654 59.3835 227.384 60.548C227.123 61.6774 226.477 63.1598 225.439 64.9723C223.371 68.584 219.888 73.2713 215.394 78.662C206.416 89.4304 193.523 102.86 180.204 115.841C166.888 128.819 153.168 141.328 142.545 150.254C137.229 154.72 132.709 158.273 129.41 160.539C127.753 161.676 126.445 162.461 125.518 162.879C125.12 163.058 124.841 163.148 124.663 163.183C124.074 162.445 123.112 161.554 121.919 160.57C120.576 159.462 118.868 158.18 116.9 156.783C112.965 153.989 107.952 150.711 102.661 147.42C92.094 140.849 80.3404 134.184 73.7571 131.209C73.7546 131.208 73.7521 131.207 73.7496 131.206L73.7479 131.205L73.6981 131.182L73.5009 131.088C73.327 131.006 73.0689 130.884 72.7329 130.725C72.0609 130.406 71.0772 129.939 69.8306 129.344C67.3373 128.155 63.793 126.456 59.5891 124.418C51.1806 120.343 40.1372 114.916 29.591 109.505C19.7831 104.472 12.6673 99.8543 7.98771 95.2337C3.32942 90.6343 1.1362 86.0854 1.04487 81.1458C0.952701 76.1615 2.99536 70.6064 7.18775 64.0064C11.3755 57.4136 17.6412 49.8805 25.8463 40.9589L25.1103 40.2819L25.8463 40.9588C36.7588 29.0932 46.5941 20.612 58.523 14.5719C70.4545 8.5304 84.5503 4.89598 104.029 2.8337C146.029 -1.61296 176.793 12.3099 197.068 27.3382C207.211 34.8561 214.73 42.6521 219.71 48.5652C222.199 51.5213 224.053 54.0051 225.282 55.7459C225.897 56.6163 226.355 57.3007 226.658 57.7654C226.81 57.9977 226.923 58.175 226.997 58.2932C227.034 58.3523 227.062 58.3966 227.08 58.4255L227.099 58.4573L227.104 58.4645ZM124.507 163.201C124.507 163.201 124.51 163.201 124.516 163.201C124.51 163.201 124.507 163.201 124.507 163.201Z" fill="white" stroke="url(#paint0_linear_687_2085)" stroke-width="2"/>
<defs>
<linearGradient id="paint0_linear_687_2085" x1="38.8875" y1="59.2599" x2="42.3431" y2="135.424" gradientUnits="userSpaceOnUse">
<stop stop-color="#FEB45A"/>
<stop offset="1" stop-color="#19B8AC"/>
</linearGradient>
</defs>
</svg>
