<svg width="65" height="39" viewBox="0 0 65 39" fill="none" xmlns="http://www.w3.org/2000/svg">
<path d="M22.1604 38.6954L18.7715 38.6739L24.8908 22.0183H28.2866L22.1604 38.6954Z" fill="#ED1C24"/>
<path d="M29.2298 38.6954L25.8408 38.6738L33.8819 16.7859H37.2787L29.2298 38.6954Z" fill="#FFF200"/>
<path d="M36.2952 38.6952L32.9062 38.6737L45.8063 3.55737L48.7993 4.65696L36.2952 38.6952Z" fill="#25B6AC"/>
<path d="M64.9999 38.6954H44.8486L45.6219 35.5074H60.432L51.6255 11.4458L52.9995 5.91846L64.9999 38.6954Z" fill="#272486"/>
<path d="M48.6843 0L43.791 4.46598L50.1053 6.47111L48.6843 0Z" fill="#25B6AC"/>
<path d="M12.5002 35.9394H7.36784L2.8754 31.937V22.7679V6.97768L7.36784 2.97623H12.5002L16.3067 12.9705H19.7024L14.9464 0.10083H6.27119L0 5.68894V22.7679V33.2257L6.27119 38.8148H14.9464L19.7024 25.9451H16.3067L12.5002 35.9394Z" fill="#272486"/>
</svg>
