<svg width="24" height="24" viewBox="0 0 24 24" fill="none" xmlns="http://www.w3.org/2000/svg">
<path opacity="0.3" fill-rule="evenodd" clip-rule="evenodd" d="M5 7C5 9.20914 6.79086 11 9 11C11.2091 11 13 9.20914 13 7C13 4.79086 11.2091 3 9 3C6.79086 3 5 4.79086 5 7ZM15 11C15 12.6569 16.3431 14 18 14C19.6569 14 21 12.6569 21 11C21 9.34315 19.6569 8 18 8C16.3431 8 15 9.34315 15 11Z" fill="#25B6AC"/>
<path fill-rule="evenodd" clip-rule="evenodd" d="M8.98334 13C4.26191 13 0.388259 15.4265 0.000651684 20.1992C-0.0204618 20.4592 0.476712 21 0.727502 21H17.2467C17.9979 21 18.0096 20.3955 17.9979 20.2C17.7049 15.2932 13.7712 13 8.98334 13ZM23.456 21.0001H19.6005C19.6004 18.7492 18.8567 16.6719 17.6016 15.0007C21.0079 15.0381 23.7893 16.7604 23.9986 20.4001C24.007 20.5467 23.9986 21.0001 23.456 21.0001Z" fill="#25B6AC"/>
</svg>
