<svg width="34" height="34" viewBox="0 0 34 34" fill="none" xmlns="http://www.w3.org/2000/svg">
<path opacity="0.3" fill-rule="evenodd" clip-rule="evenodd" d="M4.24967 8.5C3.46727 8.5 2.83301 9.13426 2.83301 9.91667C2.83301 10.6991 3.46727 11.3333 4.24967 11.3333H7.08301C7.86541 11.3333 8.49967 10.6991 8.49967 9.91667C8.49967 9.13426 7.86541 8.5 7.08301 8.5H4.24967ZM0 17C0 16.2176 0.634263 15.5833 1.41667 15.5833H7.08333C7.86574 15.5833 8.5 16.2176 8.5 17C8.5 17.7824 7.86574 18.4167 7.08333 18.4167H1.41667C0.634263 18.4167 0 17.7824 0 17ZM4.25 24.0833C4.25 23.3009 4.88426 22.6667 5.66667 22.6667H7.08333C7.86574 22.6667 8.5 23.3009 8.5 24.0833C8.5 24.8657 7.86574 25.5 7.08333 25.5H5.66667C4.88426 25.5 4.25 24.8657 4.25 24.0833Z" fill="#25B6AC"/>
<path fill-rule="evenodd" clip-rule="evenodd" d="M13.333 8.5C12.2284 8.5 11.333 9.39543 11.333 10.5V23.5C11.333 24.6046 12.2284 25.5 13.333 25.5H31.9997C33.1042 25.5 33.9997 24.6046 33.9997 23.5V10.5C33.9997 9.39543 33.1042 8.5 31.9997 8.5H13.333ZM31.0607 11.7804C30.8305 11.3671 30.2973 11.2125 29.8697 11.435L22.666 15.1846L15.4624 11.435C15.0348 11.2125 14.5015 11.3671 14.2713 11.7804C14.0411 12.1937 14.201 12.7092 14.6286 12.9318L22.2491 16.8983C22.5094 17.0338 22.8226 17.0338 23.0829 16.8983L30.7034 12.9318C31.131 12.7092 31.291 12.1937 31.0607 11.7804Z" fill="#25B6AC"/>
</svg>
