<svg width="43" height="43" viewBox="0 0 43 43" fill="none" xmlns="http://www.w3.org/2000/svg">
<path opacity="0.3" d="M25.6078 29.9336C24.9081 29.2339 24.9081 28.0995 25.6078 27.3998C26.3075 26.7001 27.4419 26.7001 28.1416 27.3998L35.3082 34.5664C36.0079 35.2661 36.0079 36.4005 35.3082 37.1002C34.6086 37.7999 33.4741 37.7999 32.7744 37.1002L25.6078 29.9336Z" fill="white"/>
<path fill-rule="evenodd" clip-rule="evenodd" d="M7.16699 19.7084C7.16699 26.635 12.7821 32.2501 19.7087 32.2501C26.6352 32.2501 32.2503 26.635 32.2503 19.7084C32.2503 12.7818 26.6352 7.16675 19.7087 7.16675C12.7821 7.16675 7.16699 12.7818 7.16699 19.7084ZM28.6667 19.7086C28.6667 24.6561 24.6559 28.6669 19.7083 28.6669C14.7608 28.6669 10.75 24.6561 10.75 19.7086C10.75 14.761 14.7608 10.7502 19.7083 10.7502C24.6559 10.7502 28.6667 14.761 28.6667 19.7086Z" fill="#FAFAFA"/>
</svg>
