<svg width="25" height="26" viewBox="0 0 25 26" fill="none" xmlns="http://www.w3.org/2000/svg">
<path fill-rule="evenodd" clip-rule="evenodd" d="M6.13889 3.39376C6.13889 3.25058 6.13889 3.17899 6.09402 3.1349C6.04915 3.09081 5.97763 3.09207 5.8346 3.09459C3.45754 3.13645 2.09348 3.33291 1.17157 4.25482C0 5.4264 0 7.31202 0 11.0832V17.3055C0 21.0767 0 22.9623 1.17157 24.1339C2.34315 25.3055 4.22876 25.3055 8 25.3055H17C20.7712 25.3055 22.6569 25.3055 23.8284 24.1339C25 22.9623 25 21.0767 25 17.3055V11.0833C25 7.31202 25 5.4264 23.8284 4.25482C22.9065 3.33291 21.5425 3.13645 19.1654 3.09459C19.0224 3.09207 18.9509 3.09081 18.906 3.1349C18.8611 3.17899 18.8611 3.25058 18.8611 3.39376L18.8611 6.55547C18.8611 7.3839 18.1895 8.05547 17.3611 8.05547C16.5327 8.05548 15.8611 7.3839 15.8611 6.55548L15.8611 3.38325C15.8611 3.24183 15.8611 3.17112 15.8172 3.12719C15.7732 3.08325 15.7025 3.08325 15.5611 3.08325H9.43889C9.29747 3.08325 9.22676 3.08325 9.18283 3.12719C9.13889 3.17112 9.13889 3.24183 9.13889 3.38325L9.13889 6.55547C9.1389 7.3839 8.46732 8.05547 7.6389 8.05547C6.81047 8.05548 6.1389 7.3839 6.13889 6.55548L6.13889 3.39376Z" fill="#25B6AC"/>
<path d="M8 1L8 7" stroke="#2E2E2E" stroke-linecap="round"/>
<path d="M17 1L17 7" stroke="#2E2E2E" stroke-linecap="round"/>
<ellipse cx="6.5" cy="12" rx="0.5" ry="1" fill="white"/>
<ellipse cx="10.5" cy="12" rx="0.5" ry="1" fill="white"/>
<ellipse cx="14.5" cy="12" rx="0.5" ry="1" fill="white"/>
<ellipse cx="18.5" cy="12" rx="0.5" ry="1" fill="white"/>
<circle cx="6.5" cy="16.5" r="0.5" fill="white"/>
<circle cx="10.5" cy="16.5" r="0.5" fill="white"/>
<circle cx="14.5" cy="16.5" r="0.5" fill="white"/>
<circle cx="18.5" cy="16.5" r="0.5" fill="white"/>
<circle cx="6.5" cy="20.5" r="0.5" fill="white"/>
<circle cx="10.5" cy="20.5" r="0.5" fill="white"/>
<circle cx="14.5" cy="20.5" r="0.5" fill="white"/>
<circle cx="18.5" cy="20.5" r="0.5" fill="white"/>
</svg>
