<svg width="25" height="17" viewBox="0 0 25 17" fill="none" xmlns="http://www.w3.org/2000/svg">
<path fill-rule="evenodd" clip-rule="evenodd" d="M1.5 0C0.671573 0 0 0.671572 0 1.5V5.78571C0 6.61414 0.671574 7.28571 1.5 7.28571H14.2857C15.1141 7.28571 15.7857 6.61414 15.7857 5.78572V1.5C15.7857 0.671573 15.1141 0 14.2857 0H1.5ZM1.5 9.71429C0.671573 9.71429 0 10.3859 0 11.2143V15.5C0 16.3284 0.671574 17 1.5 17H14.2857C15.1141 17 15.7857 16.3284 15.7857 15.5V11.2143C15.7857 10.3859 15.1141 9.71429 14.2857 9.71429H1.5Z" fill="#4C50A8"/>
<rect x="18.2139" width="6.07143" height="17" rx="1" fill="#25B6AC"/>
</svg>
