<svg width="19" height="19" viewBox="0 0 19 19" fill="none" xmlns="http://www.w3.org/2000/svg">
<path d="M4.33259 0C3.97705 0 3.6239 0.0542089 3.2835 0.160497L3.02331 0.241744C1.50761 0.715019 0.409951 2.06877 0.124604 3.68811C-0.0415344 4.63094 -0.0415349 5.59983 0.124604 6.54266C0.131137 6.57974 0.138097 6.61668 0.145477 6.65347C1.33427 12.8325 6.16745 17.6657 12.3465 18.8545C12.3833 18.8619 12.4202 18.8689 12.4573 18.8754C13.4002 19.0415 14.3691 19.0415 15.3119 18.8754C16.9312 18.59 18.285 17.4924 18.7583 15.9767L18.8395 15.7165C18.9458 15.3761 19 15.023 19 14.6674C19 12.9584 17.4951 11.6923 15.7933 11.6923H11.9759C10.2741 11.6923 8.76923 12.9584 8.76923 14.6674C8.76923 15.023 8.82344 15.3761 8.92973 15.7165L9.01098 15.9767C9.03872 16.0655 9.06949 16.153 9.10315 16.2388C6.35012 14.8832 4.11678 12.6499 2.76116 9.89685C2.84705 9.93052 2.93446 9.96128 3.0233 9.98903L3.2835 10.0703C3.62389 10.1766 3.97704 10.2308 4.33259 10.2308C6.04156 10.2308 7.3077 8.72591 7.30769 7.02409L7.30769 3.20668C7.3077 1.50486 6.04156 0 4.33259 0Z" fill="#19B8AC"/>
</svg>
